<svg width="134.000000" height="66.000000" viewBox="0 0 134 66" fill="none" xmlns="http://www.w3.org/2000/svg" xmlns:xlink="http://www.w3.org/1999/xlink">
	<desc>
			Created with Pixso.
	</desc>
	<defs/>
	<path d="M99.21 18.57L99.21 30.14Q99.22 31.8 99.88 33.15Q100.6 34.63 102.09 35.73Q104.09 37.17 106.1 37.17L106.1 34.11Q105.39 34.11 104.48 33.58Q103.13 32.82 102.62 31.68Q102.3 30.98 102.3 30.14L102.3 19.14Q102.3 18.4 102.79 17.45Q103.56 16.05 104.71 15.55Q105.36 15.27 106.13 15.27L106.13 12.21Q104.6 12.23 103.32 12.8Q101.9 13.44 100.79 14.78Q99.21 16.71 99.21 18.57ZM108.03 34.11L108.03 37.17Q109.65 37.17 111.48 36.12Q113.35 35 114.21 33.35Q114.96 31.94 114.96 30.14L114.96 18.57Q114.96 17.03 113.73 15.27Q112.53 13.56 110.89 12.8Q109.6 12.21 108.03 12.21L108.03 15.27Q108.68 15.28 109.26 15.49Q110.09 15.8 110.77 16.5Q111.77 17.62 111.88 18.83Q111.9 18.98 111.9 19.14L111.9 30.14Q111.88 30.82 111.66 31.43Q111.32 32.31 110.53 33.02Q109.26 34.11 108.03 34.11ZM1.4 12.39L1.4 37L4.46 37L4.46 26.1L7.62 26.1L7.62 23.11L4.46 23.11L4.46 12.39L1.4 12.39ZM9.38 23.11L9.38 26.1L12.51 26.1L12.51 37L15.6 37L15.6 12.39L12.51 12.39L12.51 23.11L9.38 23.11ZM84.58 12.39L81.49 12.39L88.62 37L89.71 37L90.84 33.76L84.58 12.39ZM94.42 12.39L90.07 25.43L91.44 30.07L91.79 30.07Q92.17 28.84 94.88 20.54Q97.2 13.41 97.52 12.39L94.42 12.39ZM120.86 37L117.8 37L117.8 12.39L120.86 12.39L120.86 37ZM126.42 25.99L122.62 25.99L122.62 23L125.96 23Q127.53 22.99 128.4 22.2Q129.47 21.24 129.51 19.14Q129.49 17.18 128.51 16.23Q127.61 15.37 125.93 15.34L122.62 15.34L122.62 12.39L126.84 12.39Q129.43 12.53 130.86 13.89Q132.64 15.57 132.64 19.14Q132.64 21.07 132.18 22.48Q131.79 23.65 131.01 24.43Q129.47 25.97 126.42 25.99ZM51.02 20.71Q50.37 21.85 50.37 23.35Q50.37 24.06 50.51 24.69Q50.63 25.13 50.83 25.52Q51.62 27.05 53.75 27.89Q54.49 28.14 56.14 28.52Q57.69 28.91 58.39 29.12Q60.89 29.88 61.14 31.1Q61.17 31.23 61.17 31.37Q61.17 31.86 61.01 32.3Q60.82 32.83 60.39 33.27Q59.91 33.77 59.31 34.05Q58.58 34.39 57.69 34.39L57.69 37.17Q59.4 37.17 60.79 36.5Q61.05 36.37 61.31 36.22Q62.47 35.53 63.14 34.5Q64.01 33.15 64.01 31.23Q64.01 30.13 63.59 29.23Q63.54 29.12 63.49 29.01Q63.17 28.44 62.73 28Q61.73 27 60.08 26.66Q56.25 25.75 54.91 25.18Q53.41 24.58 53.19 23.67Q53.15 23.52 53.15 23.35Q53.15 23.18 53.18 23Q53.26 22.45 53.61 21.95Q54.04 21.3 54.64 20.96Q55.28 20.61 56.1 20.61L56.1 17.87Q54.7 17.87 53.29 18.61Q51.75 19.43 51.02 20.71ZM57.65 17.87L57.65 20.65Q58.18 20.65 58.81 20.89Q60.1 21.37 60.6 22.28Q60.92 22.85 60.92 23.6L63.7 23.14Q63.7 22.89 63.67 22.63Q63.51 21.33 62.54 20.12Q61.69 19.1 60.61 18.54Q59.31 17.87 57.65 17.87ZM18.35 23.11L18.35 31.79Q18.35 32.99 19.23 34.32Q20.09 35.61 21.3 36.28Q22.64 37.03 24.39 37.03L24.39 34.18Q23.76 34.18 23.21 33.97Q22.81 33.81 22.46 33.55Q21.65 32.93 21.39 32.12Q21.26 31.75 21.26 31.33L21.26 23.6Q21.26 23.07 21.51 22.55Q21.85 21.81 22.43 21.39Q23.2 20.82 24.39 20.82L24.39 17.98Q22.85 17.98 21.59 18.58Q20.62 19.05 19.82 19.87Q18.43 21.37 18.35 22.93Q18.35 23.02 18.35 23.11ZM25.91 34.18L25.91 37.03Q27.39 37.01 28.58 36.41Q29.51 35.95 30.26 35.13Q31.62 33.65 31.73 32.08Q31.74 31.93 31.74 31.79L31.74 23.11Q31.74 21.91 30.86 20.61Q30.02 19.35 28.85 18.7Q27.56 17.98 25.87 17.98L25.87 20.82Q26.58 20.82 27.19 21.08Q27.41 21.18 27.63 21.32Q28.29 21.77 28.6 22.4Q28.86 22.94 28.86 23.6L28.86 31.41Q28.86 31.93 28.58 32.5Q28.17 33.35 27.49 33.77Q26.83 34.18 25.91 34.18ZM66.09 23.07L66.09 31.79Q66.09 33.02 67.07 34.39Q67.97 35.68 69.21 36.33Q70.48 37 72.1 37L72.1 34.25Q71.83 34.25 71.57 34.21Q70.84 34.09 70.17 33.62Q69.16 32.87 69.05 32Q69.04 31.9 69.04 31.79L69.04 28.63L79.73 28.63L79.73 23.04Q79.72 22.65 79.65 22.28Q79.36 20.89 78.11 19.7Q76.96 18.65 75.62 18.24Q74.74 17.98 73.79 17.98L73.79 20.72Q73.96 20.72 74.12 20.73Q74.72 20.79 75.3 21.07Q76.27 21.51 76.66 22.26Q76.92 22.75 76.92 23.39L76.92 25.78L69.04 25.78L69.04 23.39Q69.04 22.86 69.43 22.23Q69.94 21.43 70.68 21.06Q71.29 20.75 72.07 20.75L72.07 17.98Q70.78 17.99 69.68 18.46Q68.56 18.93 67.64 19.87Q66.13 21.45 66.09 23.07L66.09 23.07ZM34.41 18.01L34.41 31.93Q34.41 33.2 35.33 34.53Q36.13 35.7 37.24 36.35Q38.64 37.17 40.53 37.17L40.53 34.22Q39.94 34.22 39.41 34.04Q39.02 33.91 38.67 33.69Q37.78 33.1 37.52 32.3Q37.4 31.96 37.4 31.58L37.4 18.01L34.41 18.01ZM42.08 34.22L42.08 37.17Q43.58 37.15 44.81 36.56Q45.82 36.07 46.65 35.2Q48.12 33.63 48.16 32.02Q48.16 31.97 48.16 31.93L48.16 18.01L45.17 18.01L45.17 31.58Q45.17 32.14 44.85 32.71Q44.49 33.34 43.94 33.71Q43.18 34.22 42.08 34.22ZM52.98 31.48L50.2 32Q50.2 32.27 50.23 32.53Q50.36 33.66 51.08 34.71Q51.67 35.57 52.46 36.13Q53.95 37.17 56.17 37.17L56.17 34.39Q55.44 34.36 54.63 33.97Q53.53 33.36 53.16 32.45Q52.98 32 52.98 31.48ZM73.79 34.22L73.79 37Q74.68 37 75.52 36.77Q76.22 36.58 76.88 36.22Q78.09 35.56 78.83 34.56Q79.47 33.69 79.76 32.57L77.27 31.65Q77.16 32 76.95 32.39Q76.42 33.3 75.63 33.76Q74.84 34.22 73.79 34.22Z" fill="#FFFFFF" fill-opacity="1.000000" fill-rule="evenodd"/>
	<path d="M48.76 53.16C49.07 52.93 49.24 52.62 49.25 52.24L48.75 52.24C48.72 52.47 48.58 52.66 48.35 52.82C48.13 52.96 47.84 53.03 47.5 53.03C47.32 53.03 47.15 53.01 47 52.97C46.84 52.92 46.71 52.86 46.6 52.79C46.49 52.72 46.4 52.64 46.34 52.54C46.27 52.44 46.24 52.34 46.24 52.24L45.72 52.24C45.74 52.62 45.9 52.93 46.2 53.16C46.52 53.39 46.94 53.5 47.49 53.5Q48.3 53.5 48.76 53.16ZM35.32 62.93C35.82 63.17 36.36 63.29 36.95 63.29Q37.59 63.29 38.17 63.09Q38.36 63.03 38.54 62.94C39.02 62.7 39.44 62.39 39.8 62C40.16 61.6 40.44 61.14 40.64 60.62C40.84 60.1 40.95 59.55 40.95 58.98C40.95 58.45 40.85 57.92 40.66 57.41C40.47 56.89 40.2 56.43 39.84 56.02C39.5 55.61 39.08 55.28 38.58 55.04C38.1 54.78 37.56 54.65 36.96 54.65C36.4 54.65 35.87 54.77 35.38 55.01C34.89 55.24 34.47 55.56 34.11 55.96C33.75 56.36 33.46 56.82 33.26 57.34C33.06 57.86 32.96 58.4 32.96 58.97Q32.96 59.26 32.99 59.54Q33.06 60.06 33.24 60.57C33.44 61.09 33.71 61.55 34.06 61.96C34.41 62.36 34.83 62.68 35.32 62.93ZM69.02 62.93C69.51 63.17 70.06 63.29 70.65 63.29Q71.29 63.29 71.87 63.09Q72.05 63.03 72.23 62.94C72.72 62.7 73.14 62.39 73.49 62C73.85 61.6 74.13 61.14 74.33 60.62C74.54 60.1 74.65 59.55 74.65 58.98Q74.65 58.71 74.61 58.43Q74.55 57.92 74.36 57.41C74.17 56.89 73.89 56.43 73.54 56.02C73.2 55.61 72.78 55.28 72.28 55.04C71.79 54.78 71.25 54.65 70.66 54.65Q70.06 54.65 69.51 54.83Q69.29 54.91 69.08 55.01C68.59 55.24 68.17 55.56 67.81 55.96C67.45 56.36 67.16 56.82 66.95 57.34C66.75 57.86 66.65 58.4 66.65 58.97Q66.65 59.26 66.69 59.54Q66.75 60.06 66.94 60.57C67.13 61.09 67.41 61.55 67.76 61.96C68.11 62.36 68.53 62.68 69.02 62.93ZM125.87 57.39C125.69 57.89 125.6 58.4 125.6 58.91Q125.6 59.1 125.62 59.29Q125.67 59.91 125.89 60.52C126.09 61.04 126.37 61.51 126.72 61.92Q126.9 62.13 127.1 62.31Q127.5 62.67 127.98 62.92C128.47 63.18 129 63.3 129.59 63.3C129.91 63.3 130.25 63.26 130.58 63.17C130.93 63.08 131.25 62.96 131.55 62.79C131.86 62.62 132.13 62.42 132.38 62.18C132.63 61.93 132.82 61.64 132.96 61.32L132.26 60.96Q132.06 61.38 131.76 61.68C131.56 61.88 131.34 62.04 131.1 62.18C130.87 62.3 130.62 62.4 130.37 62.46Q129.99 62.55 129.63 62.55Q129.15 62.55 128.71 62.4Q128.53 62.34 128.36 62.26C127.98 62.06 127.64 61.8 127.35 61.47Q126.93 60.96 126.68 60.32C126.52 59.88 126.44 59.43 126.44 58.96C126.44 58.53 126.51 58.1 126.65 57.69C126.78 57.26 126.98 56.88 127.25 56.55C127.52 56.21 127.85 55.94 128.24 55.73C128.63 55.52 129.09 55.42 129.6 55.42C129.83 55.42 130.07 55.45 130.31 55.5C130.55 55.55 130.78 55.64 131 55.76C131.23 55.88 131.43 56.03 131.63 56.22Q131.93 56.51 132.13 56.93L132.79 56.52C132.53 55.97 132.13 55.52 131.59 55.18C131.05 54.84 130.41 54.66 129.65 54.66C129.01 54.66 128.43 54.79 127.93 55.05C127.43 55.3 127 55.62 126.66 56.02Q126.52 56.18 126.4 56.35Q126.07 56.83 125.87 57.39ZM0.34 54.71L2.89 58.82L0.03 63.23L1 63.23L3.49 59.24L5.2 59.24L5.2 63.23L6.13 63.23L6.13 59.24L7.84 59.24L10.33 63.23L11.3 63.23L8.43 58.82L10.99 54.71L10.02 54.71L7.72 58.49L6.13 58.49L6.13 54.71L5.2 54.71L5.2 58.49L3.61 58.49L1.3 54.71L0.34 54.71ZM19.98 54.71L14.7 61.97L14.7 54.71L13.87 54.71L13.87 63.23L14.64 63.23L19.83 56.09L19.83 63.23L20.67 63.23L20.67 54.71L19.98 54.71ZM25.84 59.86Q26.06 58.66 26.21 56.97L26.33 55.46L29.06 55.46L29.06 63.23L29.89 63.23L29.89 54.71L25.56 54.71L25.38 56.9Q25.28 58.1 25.15 58.97C25.07 59.56 24.98 60.06 24.88 60.47C24.77 60.88 24.66 61.22 24.54 61.48C24.42 61.74 24.29 61.94 24.16 62.09C24.02 62.24 23.88 62.34 23.72 62.39C23.58 62.45 23.43 62.48 23.27 62.49L23.41 63.29C23.83 63.29 24.19 63.18 24.49 62.94C24.8 62.7 25.07 62.33 25.28 61.83Q25.62 61.06 25.84 59.86ZM50.09 54.71L44.81 61.97L44.81 54.71L43.98 54.71L43.98 63.23L44.75 63.23L49.95 56.09L49.95 63.23L50.79 63.23L50.79 54.71L50.09 54.71ZM61.02 58.49L59.73 58.49L59.73 54.71L58.9 54.71L58.9 63.23L59.73 63.23L59.73 59.24L61.09 59.24L64.12 63.23L65.08 63.23L61.78 58.82L64.77 54.71L63.81 54.71L61.02 58.49ZM85.22 56.24L85.22 63.23L86.06 63.23L86.06 54.71L85.21 54.71L81.86 60.54L78.53 54.71L77.67 54.71L77.67 63.23L78.51 63.23L78.51 56.24L81.62 61.65L82.11 61.65L85.22 56.24ZM96.26 54.71L89.68 54.71L89.68 63.23L90.51 63.23L90.51 55.46L95.42 55.46L95.42 63.23L96.26 63.23L96.26 54.71ZM101.41 59.86Q101.64 58.66 101.78 56.97L101.9 55.46L104.64 55.46L104.64 63.23L105.47 63.23L105.47 54.71L101.13 54.71L100.95 56.9C100.89 57.7 100.81 58.39 100.73 58.97C100.65 59.56 100.55 60.06 100.45 60.47C100.35 60.88 100.23 61.22 100.11 61.48C99.99 61.74 99.87 61.94 99.73 62.09C99.59 62.24 99.45 62.34 99.3 62.39C99.15 62.45 99 62.48 98.84 62.49L98.99 63.29C99.4 63.29 99.76 63.18 100.07 62.94C100.38 62.7 100.64 62.33 100.86 61.83C101.08 61.32 101.27 60.66 101.41 59.86ZM114.82 63.23L114.82 62.49L109.94 62.49L109.94 59.24L114.1 59.24L114.1 58.53L109.94 58.53L109.94 55.46L114.71 55.46L114.71 54.71L109.1 54.71L109.1 63.23L114.82 63.23ZM119.98 58.49L118.69 58.49L118.69 54.71L117.86 54.71L117.86 63.23L118.69 63.23L118.69 59.24L120.06 59.24L123.08 63.23L124.04 63.23L120.74 58.82L123.73 54.71L122.77 54.71L119.98 58.49ZM33.88 59.81Q33.8 59.4 33.8 58.97C33.8 58.53 33.87 58.1 34.01 57.68C34.16 57.25 34.38 56.87 34.65 56.54C34.92 56.2 35.25 55.93 35.64 55.73Q35.75 55.68 35.85 55.63Q36.36 55.42 36.95 55.42Q37.51 55.42 37.99 55.61Q38.11 55.66 38.22 55.72C38.61 55.91 38.94 56.17 39.22 56.5C39.5 56.83 39.72 57.21 39.87 57.64C40.03 58.06 40.11 58.51 40.11 58.97Q40.11 59.17 40.09 59.37Q40.04 59.82 39.88 60.27C39.74 60.69 39.53 61.07 39.26 61.41C38.98 61.74 38.65 62.02 38.26 62.22C37.87 62.43 37.43 62.54 36.95 62.54C36.48 62.54 36.05 62.44 35.67 62.25Q35.36 62.09 35.1 61.88Q34.87 61.69 34.67 61.46Q34.56 61.32 34.47 61.18Q34.19 60.79 34.02 60.32Q33.94 60.07 33.88 59.81ZM67.72 60.32C67.57 59.88 67.49 59.44 67.49 58.97Q67.49 58.75 67.52 58.53Q67.57 58.1 67.71 57.68C67.86 57.25 68.07 56.87 68.35 56.54C68.62 56.2 68.95 55.93 69.34 55.73C69.73 55.52 70.17 55.42 70.65 55.42C71.11 55.42 71.54 55.52 71.92 55.72Q72.19 55.85 72.43 56.04Q72.7 56.24 72.92 56.5C73.2 56.83 73.41 57.21 73.57 57.64C73.73 58.06 73.81 58.51 73.81 58.97C73.81 59.41 73.73 59.84 73.58 60.27Q73.41 60.76 73.12 61.18Q73.04 61.3 72.95 61.41Q72.82 61.58 72.66 61.72Q72.35 62.02 71.96 62.22C71.57 62.43 71.13 62.54 70.65 62.54Q69.99 62.54 69.45 62.29Q69.41 62.27 69.37 62.25C68.98 62.05 68.65 61.78 68.37 61.46C68.09 61.12 67.87 60.74 67.72 60.32Z" fill="#FFFFFF" fill-opacity="1.000000" fill-rule="evenodd"/>
</svg>
